<mxfile host="app.diagrams.net" agent="Mozilla/5.0 (Windows NT 10.0; Win64; x64) AppleWebKit/537.36 (KHTML, like Gecko) Chrome/136.0.0.0 Safari/537.36" version="27.0.3">
  <diagram name="Page-1" id="W4KxuuQw2pulnPdlfxXu">
    <mxGraphModel dx="1033" dy="677" grid="1" gridSize="10" guides="1" tooltips="1" connect="1" arrows="1" fold="1" page="1" pageScale="1" pageWidth="850" pageHeight="1100" math="0" shadow="0">
      <root>
        <mxCell id="0" />
        <mxCell id="1" parent="0" />
        <mxCell id="ZClThjMRGNY7eiNdOmdP-1" value="AuthService" style="swimlane;fontStyle=0;childLayout=stackLayout;horizontal=1;startSize=26;fillColor=none;horizontalStack=0;resizeParent=1;resizeParentMax=0;resizeLast=0;collapsible=1;marginBottom=0;whiteSpace=wrap;html=1;" parent="1" vertex="1">
          <mxGeometry x="140" y="90" width="140" height="52" as="geometry" />
        </mxCell>
        <mxCell id="ZClThjMRGNY7eiNdOmdP-3" value="+ signup" style="text;strokeColor=none;fillColor=none;align=left;verticalAlign=top;spacingLeft=4;spacingRight=4;overflow=hidden;rotatable=0;points=[[0,0.5],[1,0.5]];portConstraint=eastwest;whiteSpace=wrap;html=1;" parent="ZClThjMRGNY7eiNdOmdP-1" vertex="1">
          <mxGeometry y="26" width="140" height="26" as="geometry" />
        </mxCell>
        <mxCell id="ZClThjMRGNY7eiNdOmdP-5" value="UserService" style="swimlane;fontStyle=0;childLayout=stackLayout;horizontal=1;startSize=26;fillColor=none;horizontalStack=0;resizeParent=1;resizeParentMax=0;resizeLast=0;collapsible=1;marginBottom=0;whiteSpace=wrap;html=1;" parent="1" vertex="1">
          <mxGeometry x="355" y="90" width="140" height="300" as="geometry" />
        </mxCell>
        <mxCell id="ZClThjMRGNY7eiNdOmdP-6" value="+ saveUser" style="text;strokeColor=none;fillColor=none;align=left;verticalAlign=top;spacingLeft=4;spacingRight=4;overflow=hidden;rotatable=0;points=[[0,0.5],[1,0.5]];portConstraint=eastwest;whiteSpace=wrap;html=1;" parent="ZClThjMRGNY7eiNdOmdP-5" vertex="1">
          <mxGeometry y="26" width="140" height="26" as="geometry" />
        </mxCell>
        <mxCell id="ZClThjMRGNY7eiNdOmdP-7" value="+ deleteUser" style="text;strokeColor=none;fillColor=none;align=left;verticalAlign=top;spacingLeft=4;spacingRight=4;overflow=hidden;rotatable=0;points=[[0,0.5],[1,0.5]];portConstraint=eastwest;whiteSpace=wrap;html=1;" parent="ZClThjMRGNY7eiNdOmdP-5" vertex="1">
          <mxGeometry y="52" width="140" height="26" as="geometry" />
        </mxCell>
        <mxCell id="ZClThjMRGNY7eiNdOmdP-8" value="+ updateUser&lt;div&gt;&lt;br&gt;&lt;/div&gt;&lt;div&gt;+ findById&lt;/div&gt;&lt;div&gt;&lt;br&gt;&lt;/div&gt;&lt;div&gt;+ checkIfEmailExists&lt;/div&gt;&lt;div&gt;&lt;br&gt;&lt;/div&gt;&lt;div&gt;+ findByEmail&lt;/div&gt;&lt;div&gt;&lt;br&gt;&lt;/div&gt;&lt;div&gt;+ getAllSpendings&lt;/div&gt;&lt;div&gt;&lt;br&gt;&lt;/div&gt;&lt;div&gt;+ getAllBaskets&lt;/div&gt;&lt;div&gt;&lt;br&gt;&lt;/div&gt;&lt;div&gt;+ getAllPriceAlerts&lt;/div&gt;&lt;div&gt;&lt;br&gt;&lt;/div&gt;" style="text;strokeColor=none;fillColor=none;align=left;verticalAlign=top;spacingLeft=4;spacingRight=4;overflow=hidden;rotatable=0;points=[[0,0.5],[1,0.5]];portConstraint=eastwest;whiteSpace=wrap;html=1;" parent="ZClThjMRGNY7eiNdOmdP-5" vertex="1">
          <mxGeometry y="78" width="140" height="222" as="geometry" />
        </mxCell>
        <mxCell id="ZClThjMRGNY7eiNdOmdP-9" value="ItemService" style="swimlane;fontStyle=0;childLayout=stackLayout;horizontal=1;startSize=26;fillColor=none;horizontalStack=0;resizeParent=1;resizeParentMax=0;resizeLast=0;collapsible=1;marginBottom=0;whiteSpace=wrap;html=1;" parent="1" vertex="1">
          <mxGeometry x="570" y="90" width="140" height="280" as="geometry" />
        </mxCell>
        <mxCell id="ZClThjMRGNY7eiNdOmdP-10" value="+ saveItem" style="text;strokeColor=none;fillColor=none;align=left;verticalAlign=top;spacingLeft=4;spacingRight=4;overflow=hidden;rotatable=0;points=[[0,0.5],[1,0.5]];portConstraint=eastwest;whiteSpace=wrap;html=1;" parent="ZClThjMRGNY7eiNdOmdP-9" vertex="1">
          <mxGeometry y="26" width="140" height="26" as="geometry" />
        </mxCell>
        <mxCell id="ZClThjMRGNY7eiNdOmdP-11" value="+ deleteItem" style="text;strokeColor=none;fillColor=none;align=left;verticalAlign=top;spacingLeft=4;spacingRight=4;overflow=hidden;rotatable=0;points=[[0,0.5],[1,0.5]];portConstraint=eastwest;whiteSpace=wrap;html=1;" parent="ZClThjMRGNY7eiNdOmdP-9" vertex="1">
          <mxGeometry y="52" width="140" height="26" as="geometry" />
        </mxCell>
        <mxCell id="ZClThjMRGNY7eiNdOmdP-12" value="+ updateItem&lt;div&gt;&lt;br&gt;&lt;div&gt;+ findById&lt;/div&gt;&lt;/div&gt;&lt;div&gt;&lt;br&gt;&lt;/div&gt;&lt;div&gt;+ findByName&lt;/div&gt;&lt;div&gt;&lt;br&gt;&lt;/div&gt;&lt;div&gt;+ checkIfItemExists&lt;/div&gt;&lt;div&gt;&lt;br&gt;&lt;/div&gt;&lt;div&gt;+ getAllStoreItems&lt;/div&gt;" style="text;strokeColor=none;fillColor=none;align=left;verticalAlign=top;spacingLeft=4;spacingRight=4;overflow=hidden;rotatable=0;points=[[0,0.5],[1,0.5]];portConstraint=eastwest;whiteSpace=wrap;html=1;" parent="ZClThjMRGNY7eiNdOmdP-9" vertex="1">
          <mxGeometry y="78" width="140" height="202" as="geometry" />
        </mxCell>
        <mxCell id="ZClThjMRGNY7eiNdOmdP-13" value="StoreService" style="swimlane;fontStyle=0;childLayout=stackLayout;horizontal=1;startSize=26;fillColor=none;horizontalStack=0;resizeParent=1;resizeParentMax=0;resizeLast=0;collapsible=1;marginBottom=0;whiteSpace=wrap;html=1;" parent="1" vertex="1">
          <mxGeometry x="780" y="90" width="170" height="280" as="geometry" />
        </mxCell>
        <mxCell id="ZClThjMRGNY7eiNdOmdP-14" value="+ saveStore" style="text;strokeColor=none;fillColor=none;align=left;verticalAlign=top;spacingLeft=4;spacingRight=4;overflow=hidden;rotatable=0;points=[[0,0.5],[1,0.5]];portConstraint=eastwest;whiteSpace=wrap;html=1;" parent="ZClThjMRGNY7eiNdOmdP-13" vertex="1">
          <mxGeometry y="26" width="170" height="26" as="geometry" />
        </mxCell>
        <mxCell id="ZClThjMRGNY7eiNdOmdP-15" value="+ deleteStore" style="text;strokeColor=none;fillColor=none;align=left;verticalAlign=top;spacingLeft=4;spacingRight=4;overflow=hidden;rotatable=0;points=[[0,0.5],[1,0.5]];portConstraint=eastwest;whiteSpace=wrap;html=1;" parent="ZClThjMRGNY7eiNdOmdP-13" vertex="1">
          <mxGeometry y="52" width="170" height="26" as="geometry" />
        </mxCell>
        <mxCell id="ZClThjMRGNY7eiNdOmdP-16" value="+ updateStore&lt;div&gt;&lt;br&gt;&lt;/div&gt;&lt;div&gt;+ findById&lt;/div&gt;&lt;div&gt;&lt;br&gt;&lt;/div&gt;&lt;div&gt;+ findByName&lt;/div&gt;&lt;div&gt;&lt;br&gt;&lt;/div&gt;&lt;div&gt;+ getAllStoreItems&lt;/div&gt;&lt;div&gt;&lt;br&gt;&lt;/div&gt;&lt;div&gt;+ getAllItemsDiscounts&lt;/div&gt;&lt;div&gt;&lt;br&gt;&lt;/div&gt;&lt;div&gt;+ getAllPriceHistoryEntries&lt;/div&gt;" style="text;strokeColor=none;fillColor=none;align=left;verticalAlign=top;spacingLeft=4;spacingRight=4;overflow=hidden;rotatable=0;points=[[0,0.5],[1,0.5]];portConstraint=eastwest;whiteSpace=wrap;html=1;" parent="ZClThjMRGNY7eiNdOmdP-13" vertex="1">
          <mxGeometry y="78" width="170" height="202" as="geometry" />
        </mxCell>
        <mxCell id="ZClThjMRGNY7eiNdOmdP-17" value="BasketService" style="swimlane;fontStyle=0;childLayout=stackLayout;horizontal=1;startSize=26;fillColor=none;horizontalStack=0;resizeParent=1;resizeParentMax=0;resizeLast=0;collapsible=1;marginBottom=0;whiteSpace=wrap;html=1;" parent="1" vertex="1">
          <mxGeometry x="360" y="410" width="140" height="140" as="geometry" />
        </mxCell>
        <mxCell id="ZClThjMRGNY7eiNdOmdP-18" value="+ saveBasket" style="text;strokeColor=none;fillColor=none;align=left;verticalAlign=top;spacingLeft=4;spacingRight=4;overflow=hidden;rotatable=0;points=[[0,0.5],[1,0.5]];portConstraint=eastwest;whiteSpace=wrap;html=1;" parent="ZClThjMRGNY7eiNdOmdP-17" vertex="1">
          <mxGeometry y="26" width="140" height="26" as="geometry" />
        </mxCell>
        <mxCell id="ZClThjMRGNY7eiNdOmdP-19" value="+ deleteBasket" style="text;strokeColor=none;fillColor=none;align=left;verticalAlign=top;spacingLeft=4;spacingRight=4;overflow=hidden;rotatable=0;points=[[0,0.5],[1,0.5]];portConstraint=eastwest;whiteSpace=wrap;html=1;" parent="ZClThjMRGNY7eiNdOmdP-17" vertex="1">
          <mxGeometry y="52" width="140" height="26" as="geometry" />
        </mxCell>
        <mxCell id="ZClThjMRGNY7eiNdOmdP-20" value="+ updateBasket&lt;div&gt;&lt;br&gt;&lt;/div&gt;" style="text;strokeColor=none;fillColor=none;align=left;verticalAlign=top;spacingLeft=4;spacingRight=4;overflow=hidden;rotatable=0;points=[[0,0.5],[1,0.5]];portConstraint=eastwest;whiteSpace=wrap;html=1;" parent="ZClThjMRGNY7eiNdOmdP-17" vertex="1">
          <mxGeometry y="78" width="140" height="62" as="geometry" />
        </mxCell>
        <mxCell id="ZClThjMRGNY7eiNdOmdP-21" value="BasketItemService" style="swimlane;fontStyle=0;childLayout=stackLayout;horizontal=1;startSize=26;fillColor=none;horizontalStack=0;resizeParent=1;resizeParentMax=0;resizeLast=0;collapsible=1;marginBottom=0;whiteSpace=wrap;html=1;" parent="1" vertex="1">
          <mxGeometry x="565" y="410" width="140" height="140" as="geometry" />
        </mxCell>
        <mxCell id="ZClThjMRGNY7eiNdOmdP-22" value="+ saveBasketItem" style="text;strokeColor=none;fillColor=none;align=left;verticalAlign=top;spacingLeft=4;spacingRight=4;overflow=hidden;rotatable=0;points=[[0,0.5],[1,0.5]];portConstraint=eastwest;whiteSpace=wrap;html=1;" parent="ZClThjMRGNY7eiNdOmdP-21" vertex="1">
          <mxGeometry y="26" width="140" height="26" as="geometry" />
        </mxCell>
        <mxCell id="ZClThjMRGNY7eiNdOmdP-23" value="+ deleteBasketItem" style="text;strokeColor=none;fillColor=none;align=left;verticalAlign=top;spacingLeft=4;spacingRight=4;overflow=hidden;rotatable=0;points=[[0,0.5],[1,0.5]];portConstraint=eastwest;whiteSpace=wrap;html=1;" parent="ZClThjMRGNY7eiNdOmdP-21" vertex="1">
          <mxGeometry y="52" width="140" height="26" as="geometry" />
        </mxCell>
        <mxCell id="ZClThjMRGNY7eiNdOmdP-24" value="+ updateBasketItem&lt;div&gt;&lt;br&gt;&lt;/div&gt;&lt;div&gt;+ findById&lt;/div&gt;" style="text;strokeColor=none;fillColor=none;align=left;verticalAlign=top;spacingLeft=4;spacingRight=4;overflow=hidden;rotatable=0;points=[[0,0.5],[1,0.5]];portConstraint=eastwest;whiteSpace=wrap;html=1;" parent="ZClThjMRGNY7eiNdOmdP-21" vertex="1">
          <mxGeometry y="78" width="140" height="62" as="geometry" />
        </mxCell>
        <mxCell id="ZClThjMRGNY7eiNdOmdP-25" value="SpendingService" style="swimlane;fontStyle=0;childLayout=stackLayout;horizontal=1;startSize=26;fillColor=none;horizontalStack=0;resizeParent=1;resizeParentMax=0;resizeLast=0;collapsible=1;marginBottom=0;whiteSpace=wrap;html=1;" parent="1" vertex="1">
          <mxGeometry x="780" y="410" width="140" height="104" as="geometry" />
        </mxCell>
        <mxCell id="ZClThjMRGNY7eiNdOmdP-26" value="+ saveSpending" style="text;strokeColor=none;fillColor=none;align=left;verticalAlign=top;spacingLeft=4;spacingRight=4;overflow=hidden;rotatable=0;points=[[0,0.5],[1,0.5]];portConstraint=eastwest;whiteSpace=wrap;html=1;" parent="ZClThjMRGNY7eiNdOmdP-25" vertex="1">
          <mxGeometry y="26" width="140" height="26" as="geometry" />
        </mxCell>
        <mxCell id="ZClThjMRGNY7eiNdOmdP-27" value="+ deleteSpending" style="text;strokeColor=none;fillColor=none;align=left;verticalAlign=top;spacingLeft=4;spacingRight=4;overflow=hidden;rotatable=0;points=[[0,0.5],[1,0.5]];portConstraint=eastwest;whiteSpace=wrap;html=1;" parent="ZClThjMRGNY7eiNdOmdP-25" vertex="1">
          <mxGeometry y="52" width="140" height="26" as="geometry" />
        </mxCell>
        <mxCell id="ZClThjMRGNY7eiNdOmdP-28" value="+ updateSpending" style="text;strokeColor=none;fillColor=none;align=left;verticalAlign=top;spacingLeft=4;spacingRight=4;overflow=hidden;rotatable=0;points=[[0,0.5],[1,0.5]];portConstraint=eastwest;whiteSpace=wrap;html=1;" parent="ZClThjMRGNY7eiNdOmdP-25" vertex="1">
          <mxGeometry y="78" width="140" height="26" as="geometry" />
        </mxCell>
        <mxCell id="ZClThjMRGNY7eiNdOmdP-29" value="StoreItemService" style="swimlane;fontStyle=0;childLayout=stackLayout;horizontal=1;startSize=26;fillColor=none;horizontalStack=0;resizeParent=1;resizeParentMax=0;resizeLast=0;collapsible=1;marginBottom=0;whiteSpace=wrap;html=1;" parent="1" vertex="1">
          <mxGeometry x="140" y="410" width="140" height="190" as="geometry" />
        </mxCell>
        <mxCell id="ZClThjMRGNY7eiNdOmdP-30" value="+ saveStoreItem" style="text;strokeColor=none;fillColor=none;align=left;verticalAlign=top;spacingLeft=4;spacingRight=4;overflow=hidden;rotatable=0;points=[[0,0.5],[1,0.5]];portConstraint=eastwest;whiteSpace=wrap;html=1;" parent="ZClThjMRGNY7eiNdOmdP-29" vertex="1">
          <mxGeometry y="26" width="140" height="26" as="geometry" />
        </mxCell>
        <mxCell id="ZClThjMRGNY7eiNdOmdP-31" value="+ deleteStoreItem" style="text;strokeColor=none;fillColor=none;align=left;verticalAlign=top;spacingLeft=4;spacingRight=4;overflow=hidden;rotatable=0;points=[[0,0.5],[1,0.5]];portConstraint=eastwest;whiteSpace=wrap;html=1;" parent="ZClThjMRGNY7eiNdOmdP-29" vertex="1">
          <mxGeometry y="52" width="140" height="26" as="geometry" />
        </mxCell>
        <mxCell id="ZClThjMRGNY7eiNdOmdP-32" value="+ updateStoreItem&lt;div&gt;&lt;br&gt;&lt;/div&gt;&lt;div&gt;+ findByItemId&lt;/div&gt;&lt;div&gt;&lt;br&gt;&lt;/div&gt;&lt;div&gt;&lt;br&gt;&lt;/div&gt;" style="text;strokeColor=none;fillColor=none;align=left;verticalAlign=top;spacingLeft=4;spacingRight=4;overflow=hidden;rotatable=0;points=[[0,0.5],[1,0.5]];portConstraint=eastwest;whiteSpace=wrap;html=1;" parent="ZClThjMRGNY7eiNdOmdP-29" vertex="1">
          <mxGeometry y="78" width="140" height="112" as="geometry" />
        </mxCell>
        <mxCell id="ZClThjMRGNY7eiNdOmdP-33" value="ItemDiscountService" style="swimlane;fontStyle=0;childLayout=stackLayout;horizontal=1;startSize=26;fillColor=none;horizontalStack=0;resizeParent=1;resizeParentMax=0;resizeLast=0;collapsible=1;marginBottom=0;whiteSpace=wrap;html=1;" parent="1" vertex="1">
          <mxGeometry x="795" y="760" width="140" height="150" as="geometry" />
        </mxCell>
        <mxCell id="ZClThjMRGNY7eiNdOmdP-34" value="+ saveItemDiscount" style="text;strokeColor=none;fillColor=none;align=left;verticalAlign=top;spacingLeft=4;spacingRight=4;overflow=hidden;rotatable=0;points=[[0,0.5],[1,0.5]];portConstraint=eastwest;whiteSpace=wrap;html=1;" parent="ZClThjMRGNY7eiNdOmdP-33" vertex="1">
          <mxGeometry y="26" width="140" height="26" as="geometry" />
        </mxCell>
        <mxCell id="ZClThjMRGNY7eiNdOmdP-35" value="+ deleteItemDiscount" style="text;strokeColor=none;fillColor=none;align=left;verticalAlign=top;spacingLeft=4;spacingRight=4;overflow=hidden;rotatable=0;points=[[0,0.5],[1,0.5]];portConstraint=eastwest;whiteSpace=wrap;html=1;" parent="ZClThjMRGNY7eiNdOmdP-33" vertex="1">
          <mxGeometry y="52" width="140" height="26" as="geometry" />
        </mxCell>
        <mxCell id="ZClThjMRGNY7eiNdOmdP-36" value="+ updateItemDiscount&lt;div&gt;&lt;br&gt;&lt;/div&gt;&lt;div&gt;+ findByStoreItemId&lt;/div&gt;" style="text;strokeColor=none;fillColor=none;align=left;verticalAlign=top;spacingLeft=4;spacingRight=4;overflow=hidden;rotatable=0;points=[[0,0.5],[1,0.5]];portConstraint=eastwest;whiteSpace=wrap;html=1;" parent="ZClThjMRGNY7eiNdOmdP-33" vertex="1">
          <mxGeometry y="78" width="140" height="72" as="geometry" />
        </mxCell>
        <mxCell id="ZClThjMRGNY7eiNdOmdP-37" value="PriceAlertService" style="swimlane;fontStyle=0;childLayout=stackLayout;horizontal=1;startSize=26;fillColor=none;horizontalStack=0;resizeParent=1;resizeParentMax=0;resizeLast=0;collapsible=1;marginBottom=0;whiteSpace=wrap;html=1;" parent="1" vertex="1">
          <mxGeometry x="360" y="760" width="140" height="140" as="geometry" />
        </mxCell>
        <mxCell id="ZClThjMRGNY7eiNdOmdP-38" value="+ savePriceAlert" style="text;strokeColor=none;fillColor=none;align=left;verticalAlign=top;spacingLeft=4;spacingRight=4;overflow=hidden;rotatable=0;points=[[0,0.5],[1,0.5]];portConstraint=eastwest;whiteSpace=wrap;html=1;" parent="ZClThjMRGNY7eiNdOmdP-37" vertex="1">
          <mxGeometry y="26" width="140" height="26" as="geometry" />
        </mxCell>
        <mxCell id="ZClThjMRGNY7eiNdOmdP-39" value="+ deletePriceAlert" style="text;strokeColor=none;fillColor=none;align=left;verticalAlign=top;spacingLeft=4;spacingRight=4;overflow=hidden;rotatable=0;points=[[0,0.5],[1,0.5]];portConstraint=eastwest;whiteSpace=wrap;html=1;" parent="ZClThjMRGNY7eiNdOmdP-37" vertex="1">
          <mxGeometry y="52" width="140" height="26" as="geometry" />
        </mxCell>
        <mxCell id="ZClThjMRGNY7eiNdOmdP-40" value="+ updatePriceAlert&lt;div&gt;&lt;br&gt;&lt;/div&gt;&lt;div&gt;+ findByStoreItemId&lt;/div&gt;" style="text;strokeColor=none;fillColor=none;align=left;verticalAlign=top;spacingLeft=4;spacingRight=4;overflow=hidden;rotatable=0;points=[[0,0.5],[1,0.5]];portConstraint=eastwest;whiteSpace=wrap;html=1;" parent="ZClThjMRGNY7eiNdOmdP-37" vertex="1">
          <mxGeometry y="78" width="140" height="62" as="geometry" />
        </mxCell>
        <mxCell id="ZClThjMRGNY7eiNdOmdP-41" value="PriceHistoryService" style="swimlane;fontStyle=0;childLayout=stackLayout;horizontal=1;startSize=26;fillColor=none;horizontalStack=0;resizeParent=1;resizeParentMax=0;resizeLast=0;collapsible=1;marginBottom=0;whiteSpace=wrap;html=1;" parent="1" vertex="1">
          <mxGeometry x="575" y="760" width="140" height="140" as="geometry" />
        </mxCell>
        <mxCell id="ZClThjMRGNY7eiNdOmdP-42" value="+ savePriceHistory" style="text;strokeColor=none;fillColor=none;align=left;verticalAlign=top;spacingLeft=4;spacingRight=4;overflow=hidden;rotatable=0;points=[[0,0.5],[1,0.5]];portConstraint=eastwest;whiteSpace=wrap;html=1;" parent="ZClThjMRGNY7eiNdOmdP-41" vertex="1">
          <mxGeometry y="26" width="140" height="26" as="geometry" />
        </mxCell>
        <mxCell id="ZClThjMRGNY7eiNdOmdP-43" value="+ deletePriceHistory" style="text;strokeColor=none;fillColor=none;align=left;verticalAlign=top;spacingLeft=4;spacingRight=4;overflow=hidden;rotatable=0;points=[[0,0.5],[1,0.5]];portConstraint=eastwest;whiteSpace=wrap;html=1;" parent="ZClThjMRGNY7eiNdOmdP-41" vertex="1">
          <mxGeometry y="52" width="140" height="26" as="geometry" />
        </mxCell>
        <mxCell id="ZClThjMRGNY7eiNdOmdP-44" value="+ updatePriceHistory&lt;div&gt;&lt;br&gt;&lt;/div&gt;&lt;div&gt;+ findByStoreItemId&lt;/div&gt;" style="text;strokeColor=none;fillColor=none;align=left;verticalAlign=top;spacingLeft=4;spacingRight=4;overflow=hidden;rotatable=0;points=[[0,0.5],[1,0.5]];portConstraint=eastwest;whiteSpace=wrap;html=1;" parent="ZClThjMRGNY7eiNdOmdP-41" vertex="1">
          <mxGeometry y="78" width="140" height="62" as="geometry" />
        </mxCell>
        <mxCell id="ZClThjMRGNY7eiNdOmdP-45" value="PurchasedItemService" style="swimlane;fontStyle=0;childLayout=stackLayout;horizontal=1;startSize=26;fillColor=none;horizontalStack=0;resizeParent=1;resizeParentMax=0;resizeLast=0;collapsible=1;marginBottom=0;whiteSpace=wrap;html=1;" parent="1" vertex="1">
          <mxGeometry x="130" y="760" width="140" height="140" as="geometry" />
        </mxCell>
        <mxCell id="ZClThjMRGNY7eiNdOmdP-46" value="+ savePurchasedItem" style="text;strokeColor=none;fillColor=none;align=left;verticalAlign=top;spacingLeft=4;spacingRight=4;overflow=hidden;rotatable=0;points=[[0,0.5],[1,0.5]];portConstraint=eastwest;whiteSpace=wrap;html=1;" parent="ZClThjMRGNY7eiNdOmdP-45" vertex="1">
          <mxGeometry y="26" width="140" height="26" as="geometry" />
        </mxCell>
        <mxCell id="ZClThjMRGNY7eiNdOmdP-47" value="+ deletePurchasedItem" style="text;strokeColor=none;fillColor=none;align=left;verticalAlign=top;spacingLeft=4;spacingRight=4;overflow=hidden;rotatable=0;points=[[0,0.5],[1,0.5]];portConstraint=eastwest;whiteSpace=wrap;html=1;" parent="ZClThjMRGNY7eiNdOmdP-45" vertex="1">
          <mxGeometry y="52" width="140" height="26" as="geometry" />
        </mxCell>
        <mxCell id="ZClThjMRGNY7eiNdOmdP-48" value="+ updatePurchasedItem&lt;div&gt;&lt;br&gt;&lt;/div&gt;&lt;div&gt;+ findByItemName&lt;/div&gt;" style="text;strokeColor=none;fillColor=none;align=left;verticalAlign=top;spacingLeft=4;spacingRight=4;overflow=hidden;rotatable=0;points=[[0,0.5],[1,0.5]];portConstraint=eastwest;whiteSpace=wrap;html=1;" parent="ZClThjMRGNY7eiNdOmdP-45" vertex="1">
          <mxGeometry y="78" width="140" height="62" as="geometry" />
        </mxCell>
        <mxCell id="ZClThjMRGNY7eiNdOmdP-49" value="uita-te in coding challenge pentru functionalitati" style="shape=callout;whiteSpace=wrap;html=1;perimeter=calloutPerimeter;" parent="1" vertex="1">
          <mxGeometry x="1020" y="190" width="120" height="80" as="geometry" />
        </mxCell>
      </root>
    </mxGraphModel>
  </diagram>
</mxfile>
